<svg xmlns="http://www.w3.org/2000/svg" viewBox="0 0 38 50"><defs><style>.cls-1{fill:#eb5c63;}</style></defs><title>block-4-icon-1</title><g id="Слой_2" data-name="Слой 2"><g id="Слой_1-2" data-name="Слой 1"><path class="cls-1" d="M29.71,12.16a.75.75,0,0,0-1-.35.73.73,0,0,0-.35,1,10.14,10.14,0,0,1-1.46,11l-4.32-2.13a.83.83,0,0,1-.47-.75v-1a4.61,4.61,0,0,0,1.59-3.47v-.83h.05a.74.74,0,0,0,.74-.73V13.26a4.68,4.68,0,0,0-4.71-4.65H18.21a4.68,4.68,0,0,0-4.71,4.65v1.57a.74.74,0,0,0,.74.73h.05v.83a4.61,4.61,0,0,0,1.59,3.47v1a.83.83,0,0,1-.47.75l-4.32,2.13a10.12,10.12,0,0,1,.58-13.84A10.46,10.46,0,0,1,24.93,8.78a.75.75,0,0,0,1-.18.73.73,0,0,0-.18-1A12,12,0,0,0,10.62,8.9a11.58,11.58,0,0,0,0,16.53,12,12,0,0,0,16.77,0A11.6,11.6,0,0,0,29.71,12.16ZM15,13.94v-.68a3.21,3.21,0,0,1,3.23-3.18h1.59A3.21,3.21,0,0,1,23,13.26v.81a11.46,11.46,0,0,1-5.2-1.42.75.75,0,0,0-.94.09A4.87,4.87,0,0,1,15,13.94Zm.79,2.45V15.21a6.3,6.3,0,0,0,1.74-1,13.33,13.33,0,0,0,4.71,1.32v.91a3.23,3.23,0,0,1-6.45,0Zm2.48,11a10.36,10.36,0,0,1-6.08-2.5L16.07,23a2.37,2.37,0,0,0,.37-.23l1.82,1.79Zm-1-5.88a2.29,2.29,0,0,0,.08-.59v-.16a4.77,4.77,0,0,0,3.28,0v.16a2.29,2.29,0,0,0,.08.59L19,23.18Zm2.46,5.88V24.52l1.82-1.79a2.37,2.37,0,0,0,.37.23l3.89,1.92A10.35,10.35,0,0,1,19.74,27.37Z"/><path class="cls-1" d="M38,10a2.27,2.27,0,0,0-.68-1.63L29.52.67A2.33,2.33,0,0,0,27.87,0H1.54A1.53,1.53,0,0,0,0,1.52v47A1.53,1.53,0,0,0,1.54,50H36.46A1.53,1.53,0,0,0,38,48.48ZM29.27,2.5l6.2,6.11H29.32a.05.05,0,0,1-.05-.05Zm7.2,46H1.54a.05.05,0,0,1-.05-.05v-47a.05.05,0,0,1,.05-.05H27.78v7.1a1.53,1.53,0,0,0,1.54,1.52h7.2V48.48A.05.05,0,0,1,36.46,48.54Z"/><path class="cls-1" d="M11.86,32.88H8.68a.73.73,0,1,0,0,1.46h3.18a.73.73,0,1,0,0-1.46Z"/><path class="cls-1" d="M29.32,32.88H15a.73.73,0,1,0,0,1.46H29.32a.73.73,0,1,0,0-1.46Z"/><path class="cls-1" d="M11.86,36H8.68a.73.73,0,1,0,0,1.46h3.18a.73.73,0,1,0,0-1.46Z"/><path class="cls-1" d="M29.32,36H15a.73.73,0,1,0,0,1.46H29.32a.73.73,0,1,0,0-1.46Z"/><path class="cls-1" d="M11.86,39.14H8.68a.73.73,0,1,0,0,1.46h3.18a.73.73,0,1,0,0-1.46Z"/><path class="cls-1" d="M29.32,39.14H15a.73.73,0,1,0,0,1.46H29.32a.73.73,0,1,0,0-1.46Z"/><path class="cls-1" d="M11.86,42.27H8.68a.73.73,0,1,0,0,1.46h3.18a.73.73,0,1,0,0-1.46Z"/><path class="cls-1" d="M29.32,42.27H15a.73.73,0,1,0,0,1.46H29.32a.73.73,0,1,0,0-1.46Z"/></g></g></svg>