<svg xmlns="http://www.w3.org/2000/svg" viewBox="0 0 49 49"><defs><style>.cls-1{fill:#eb5c63;}</style></defs><title>block-4-icon-2</title><g id="Слой_2" data-name="Слой 2"><g id="Слой_1-2" data-name="Слой 1"><path class="cls-1" d="M45,20.55H34a4,4,0,0,0-4,4v6.74l-4.74-1.05v-2a9.46,9.46,0,0,0,3.93-7.37,11.5,11.5,0,0,0,3.18-8V9.48A4,4,0,0,0,29,5.57,9.91,9.91,0,0,0,20.06,0H18.73A11.68,11.68,0,0,0,11.6,2.45a11.54,11.54,0,0,0-4.49,9.17v11.3a2.37,2.37,0,0,0,2.37,2.37h2.07a9.54,9.54,0,0,0,2.67,2.95v2L8,31.56a10.21,10.21,0,0,0-8,10V49H45a4,4,0,0,0,4-4V24.5A4,4,0,0,0,45,20.55ZM30,32.86v2.48l-1.72-2.87ZM9.48,23.71a.79.79,0,0,1-.79-.79V18.74a11.63,11.63,0,0,0,1.6,2.13,9.42,9.42,0,0,0,.54,2.84ZM11.39,15H10.27v3.29a9.93,9.93,0,0,1-1.58-5.39v-1.3a10,10,0,0,1,3.87-7.92,10.09,10.09,0,0,1,6.16-2.11h1.33a8.33,8.33,0,0,1,7.66,5.05l.21.48h.52a2.37,2.37,0,0,1,2.37,2.37v3.43a9.93,9.93,0,0,1-1.58,5.39V11.85H27.51l-.27.11A42.5,42.5,0,0,1,11.39,15Zm2.06,10.27h3.29A2.37,2.37,0,0,0,19,26.87h1.58a2.37,2.37,0,1,0,0-4.74H19a2.37,2.37,0,0,0-2.23,1.58H12.52a7.84,7.84,0,0,1-.66-3.16v-4a44,44,0,0,0,15.81-3.1v7.05a7.89,7.89,0,0,1-14.21,4.74Zm4.73-.79a.79.79,0,0,1,.79-.79h1.58a.79.79,0,0,1,0,1.58H19A.79.79,0,0,1,18.18,24.5ZM9.48,47.42V44.26H7.9v3.16H1.58V41.59a8.64,8.64,0,0,1,6.81-8.49l2.82-.63-2,3.36,4,2.42-2.34,5.47,4.92,3.69Zm9,0-5.61-4.21,2.4-5.6-3.87-2.32,2-3.27h0l1.14-.25,4.27,15.66Zm-2.63-16.7V29.16a9.38,9.38,0,0,0,7.9,0v1.56l-4,14.49Zm5,16.7,4.27-15.66,1.14.25h0l2,3.27-3.87,2.32,2.4,5.6-5.61,4.21Zm2.92,0,4.92-3.69-2.34-5.47L30,36v9a3.91,3.91,0,0,0,.81,2.37ZM47.42,45A2.37,2.37,0,0,1,45,47.42H34A2.37,2.37,0,0,1,31.61,45v-.79H47.42Zm0-2.37H31.61V26.08H47.42ZM31.61,24.5A2.37,2.37,0,0,1,34,22.13H45a2.37,2.37,0,0,1,2.37,2.37Z"/><path class="cls-1" d="M37.15,45h4.74v1.58H37.15Z"/></g></g></svg>