<svg xmlns="http://www.w3.org/2000/svg" viewBox="0 0 50 50"><defs><style>.cls-1{fill:#eb5c63;}</style></defs><title>block-4-icon-3</title><g id="Слой_2" data-name="Слой 2"><g id="Слой_1-2" data-name="Слой 1"><path class="cls-1" d="M41.3,0H8.71L0,13.93V50H50V13.93Zm-.92,1.67,7.29,11.67H30.83V1.67ZM25,1.67h4.17V13.33H20.83V1.67Zm3.27,18a.83.83,0,1,0-1.06,1.06l-1.44,1.44a.82.82,0,0,0-1.55,0l-1.44-1.44a.83.83,0,1,0-1.06-1.06l-.06-.06-.83.83V15h.83a.83.83,0,0,0,1.67,0h3.33a.83.83,0,0,0,1.67,0h.83v5.49l-.83-.83ZM9.63,1.67h9.54V13.33H2.34ZM20.83,48.33v-3l.83.83L25,42.85l3.33,3.33.83-.83v3Zm10,0v-7l-2.5,2.5L25,40.49l-3.33,3.33-2.5-2.5v7H1.67V15h17.5v9.51l2.5-2.5L25,25.35,28.33,22l2.5,2.5V15h17.5V48.33Z"/><path class="cls-1" d="M25,1.67a.83.83,0,1,1-.83.83A.83.83,0,0,1,25,1.67Z"/><path class="cls-1" d="M22.5,4.17a.83.83,0,1,1-.83.83A.83.83,0,0,1,22.5,4.17Z"/><path class="cls-1" d="M22.5,9.17a.83.83,0,1,1-.83.83A.83.83,0,0,1,22.5,9.17Z"/><path class="cls-1" d="M25,6.67a.83.83,0,1,1-.83.83A.83.83,0,0,1,25,6.67Z"/><path class="cls-1" d="M27.5,4.17a.83.83,0,1,1-.83.83A.83.83,0,0,1,27.5,4.17Z"/><path class="cls-1" d="M27.5,9.17a.83.83,0,1,1-.83.83A.83.83,0,0,1,27.5,9.17Z"/><path class="cls-1" d="M25,11.67a.83.83,0,1,1-.83.83A.83.83,0,0,1,25,11.67Z"/><path class="cls-1" d="M25,16.67a.83.83,0,1,1-.83.83A.83.83,0,0,1,25,16.67Z"/></g></g></svg>